<?xml version="1.0" encoding="UTF-8"?>
<svg width="9px" height="6px" viewBox="0 0 9 6" version="1.1" xmlns="http://www.w3.org/2000/svg" xmlns:xlink="http://www.w3.org/1999/xlink">
    <!-- Generator: Sketch 49.1 (51147) - http://www.bohemiancoding.com/sketch -->
    <title>arrow</title>
    <desc>Created with Sketch.</desc>
    <defs></defs>
    <g id="Page-1" stroke="none" stroke-width="1" fill="none" fill-rule="evenodd">
        <g id="arrow" transform="translate(4.000000, 3.000000) rotate(180.000000) translate(-4.000000, -3.000000) translate(-1.000000, 0.000000)" fill="#000000" fill-rule="nonzero">
            <path d="M0,0.75 C0,0.67 0.03,0.6 0.09,0.54 L0.54,0.09 C0.6,0.03 0.67,0 0.75,0 C0.83,0 0.896,0.03 0.957,0.09 L4.5,3.634 L8.044,0.09 C8.104,0.03 8.174,0 8.251,0 C8.328,0 8.399,0.03 8.461,0.09 L8.911,0.54 C8.971,0.6 9.001,0.67 9.001,0.75 C9.001,0.83 8.971,0.896 8.911,0.956 L4.708,5.158 C4.648,5.218 4.578,5.248 4.5,5.248 C4.422,5.248 4.353,5.218 4.292,5.158 L0.09,0.956 C0.03,0.896 0,0.826 0,0.75 Z" id="Shape"></path>
        </g>
    </g>
</svg>